<svg width="35" height="34" viewBox="0 0 35 34" fill="none" xmlns="http://www.w3.org/2000/svg">
<g id="Logo">
<g id="Group 15520">
<path id="Vector" fill-rule="evenodd" clip-rule="evenodd" d="M26.1444 24.2363L28.543 24.6978C30.9244 25.1562 32.7418 22.6034 31.5292 20.5035L23.0171 5.76169C21.8045 3.66175 18.6848 3.95916 17.8911 6.25037L17.0914 8.55826C17.55 8.89041 17.9543 9.3287 18.27 9.87561L25.5927 22.5573C25.9084 23.1041 26.0859 23.6732 26.1444 24.2363ZM24.6918 23.9568C24.6286 23.7174 24.5316 23.4793 24.3976 23.2474L17.075 10.5655C16.9409 10.3333 16.783 10.1302 16.6073 9.95587L15.0587 14.4257L17.8911 22.6481L24.6918 23.9568Z" fill="#4545E8"/>
<path id="Vector_2" d="M4.58428 28.7718C2.80398 28.4916 1.73553 26.6412 2.3829 24.9594L5.53272 16.7772C6.3876 14.5561 9.43557 14.3177 10.6256 16.3787L16.1378 25.9247C17.3278 27.9857 15.5972 30.5058 13.2461 30.1356L4.58428 28.7718Z" fill="#4545E8"/>
<path id="Vector_3" fill-rule="evenodd" clip-rule="evenodd" d="M17.891 26.9771L21.5721 27.4676C23.9005 27.7776 25.5717 25.2811 24.3973 23.247L17.0745 10.5651C15.9001 8.53125 12.9019 8.73002 12.0065 10.9012L10.5907 14.334C11.0699 14.6701 11.4925 15.1206 11.8205 15.6884L17.3327 25.2344C17.6606 25.8025 17.8394 26.3939 17.891 26.9771ZM16.4679 26.7876C16.4085 26.497 16.3003 26.2064 16.1375 25.9244L10.6255 16.3784C10.4627 16.0965 10.2652 15.8576 10.0432 15.6611L7.42966 21.9978C6.72152 23.7149 7.83147 25.637 9.67261 25.8823L16.4679 26.7876Z" fill="#4545E8"/>
</g>
</g>
</svg>
